Coordinates
version=1
nRows=17
nColumns=33
inDegrees=yes

Units are S.I. units (second, meters, Newtons, ...)
Angles are in degrees.

endheader
time	ground_thorax_rot_x	ground_thorax_rot_y	ground_thorax_rot_z	ground_thorax_tx	ground_thorax_ty	ground_thorax_tz	clav_prot_r	clav_elev_r	scapula_abduction_r	scapula_elevation_r	scapula_upward_rot_r	scapula_winging_r	shoulder_elv_r	plane_of_elev_r	axial_rot_r	elbow_flexion_r	pro_sup_r	wrist_flex_r	wrist_dev_r	clav_prot_l	clav_elev_l	scapula_abduction_l	scapula_elevation_l	scapula_upward_rot_l	scapula_winging_l	shoulder_elv_l	plane_of_elev_l	axial_rot_l	elbow_flexion_l	pro_sup_l	wrist_flex_l	wrist_dev_l
      5.19000000	     38.78854002	      4.28897011	     13.05213633	   -188.79458346	    850.58627280	     -7.98202705	     13.66643082	     36.65170067	     34.73059065	     45.00000000	    -45.00000000	   2076.21564899	  -1733.29788522	     31.74346468	     69.03088757	   -346.04462632	     38.11074096	     18.10203647	      6.38486437	     11.65152008	    -45.00000000	    -35.26212670	     45.00000000	    -45.00000000	   -261.16743627	  -2976.14422785	    146.04176501	    133.38429328	    371.60514389	     39.68866316	      6.91402969	    -21.66723702
      5.20000000	     38.90010734	      4.17945972	     12.90845832	   -188.20033391	    851.24351078	     -7.89770036	     13.91362141	     36.75265266	     35.08798176	     45.00000000	    -45.00000000	   2076.22470392	  -1733.34582884	     31.52592003	     69.16181352	   -346.08821524	     38.92487733	     18.11425283	      6.26166641	     11.55749777	    -45.00000000	    -35.09099531	     45.00000000	    -45.00000000	   -261.12168454	  -2976.08899423	    145.68276031	    133.57695830	    371.55758289	     40.32232006	      6.78112600	    -21.50713782
      5.21000000	     38.93705518	      4.24724051	     12.86044205	   -187.60222710	    851.97396757	     -7.83400854	     13.80272687	     36.63703518	     35.03294830	     45.00000000	    -45.00000000	   2076.10278533	  -1733.23126570	     31.64706278	     68.92914957	   -345.92167158	     39.66506125	     18.09136614	      6.15956907	     11.64556948	    -45.00000000	    -35.35155949	     45.00000000	    -45.00000000	   -261.09421831	  -2975.98030786	    145.64370553	    133.66757405	    371.76114595	     40.89568730	      6.65462597	    -21.60706202
      5.22000000	     38.95331847	      4.02978784	     12.74420141	   -186.99858449	    852.78989531	     -7.79367684	     13.81977291	     36.80082894	     35.11742423	     45.00000000	    -44.72627187	   2076.16282172	  -1733.06458811	     31.64057235	     68.98612854	   -345.73237977	     40.44394883	     18.18085990	      6.07524458	     11.70372405	    -45.00000000	    -35.45043672	     45.00000000	    -45.00000000	   -261.03887368	  -2975.86947650	    145.55194302	    133.93589846	    371.98283213	     41.41795385	      6.48936528	    -21.53041551
      5.23000000	     38.97056555	      4.01707082	     12.61876501	   -186.39056712	    853.69744400	     -7.77914119	     13.84341526	     36.65927901	     35.28341195	     45.00000000	    -44.43535725	   2075.73374186	  -1733.27971940	     31.69199159	     68.97828044	   -345.45521912	     41.23908467	     18.10502405	      5.91665280	     11.65125034	    -45.00000000	    -35.66058206	     45.00000000	    -45.00000000	   -261.13202132	  -2975.72772918	    145.48106291	    134.21576025	    372.08871773	     41.95406156	      6.42800566	    -21.69070132
      5.24000000	     39.03063727	      4.08082460	     12.64602337	   -185.77040136	    854.71154877	     -7.79147886	     13.82814895	     36.86610425	     35.40319346	     45.00000000	    -44.46433543	   2075.82032456	  -1733.15460947	     31.51712231	     69.10672592	   -345.53803158	     42.32378876	     18.06553420	      5.82352406	     11.58945605	    -45.00000000	    -35.52254388	     45.00000000	    -45.00000000	   -261.27168767	  -2975.66040586	    145.38294479	    134.53702593	    372.02844488	     42.60907775	      6.35267127	    -21.58297684
      5.25000000	     39.01084495	      3.89873474	     12.54329429	   -185.13532644	    855.83537895	     -7.83029770	     13.86920629	     36.67908242	     35.50783681	     45.00000000	    -44.92270104	   2075.76326395	  -1732.93860505	     31.97239705	     68.71819973	   -345.52231392	     43.29003917	     18.05689687	      5.74555409	     11.65769065	    -45.00000000	    -35.54675430	     45.00000000	    -45.00000000	   -261.10244625	  -2975.48866145	    145.06891170	    134.75219548	    372.13673544	     43.14171139	      6.19648547	    -21.61328487
      5.26000000	     39.03663148	      3.86155733	     12.42125692	   -184.47379255	    857.07315817	     -7.89424689	     13.75317345	     36.77833894	     35.36517061	     45.00000000	    -44.34493212	   2075.86906390	  -1732.68532324	     31.77575437	     68.47442331	   -345.28622543	     44.30009680	     18.14119514	      5.70709759	     11.60204629	    -45.00000000	    -35.72738628	     45.00000000	    -45.00000000	   -261.28543898	  -2975.32866199	    145.13435529	    135.03054732	    372.36755454	     43.64871378	      6.14767911	    -21.66332600
      5.27000000	     39.06325134	      3.73423096	     12.23294596	   -183.76957366	    858.43274968	     -7.97840011	     13.72292223	     36.85013407	     35.63496836	     45.00000000	    -44.35901709	   2075.61162296	  -1732.73790526	     31.90840895	     68.50052015	   -345.18995113	     45.39988012	     18.08211082	      5.55414851	     11.63877605	    -45.00000000	    -35.77783377	     45.00000000	    -45.00000000	   -261.23100546	  -2975.17365419	    144.78623191	    135.51707543	    372.35595500	     44.13629836	      5.99209918	    -21.65132176
      5.28000000	     39.00822519	      3.71489145	     12.29833262	   -183.00757555	    859.89589700	     -8.08785584	     13.75530657	     36.86383056	     36.00612938	     45.00000000	    -44.33896685	   2075.46805790	  -1732.68677575	     31.71300949	     68.27813082	   -344.90423537	     46.81730391	     18.07539037	      5.43466872	     11.58661024	    -45.00000000	    -35.91784454	     45.00000000	    -45.00000000	   -261.22615020	  -2974.98800764	    144.78617245	    135.89804666	    372.46863644	     44.74282243	      5.92313065	    -21.65986445
      5.29000000	     39.01539344	      3.60909194	     12.11555799	   -182.17321870	    861.47730895	     -8.20842804	     13.63154952	     36.92446690	     36.00887475	     45.00000000	    -43.90003970	   2075.41570516	  -1732.52248299	     31.68482524	     67.94206743	   -344.72708919	     48.13771197	     18.11690179	      5.33010189	     11.62824252	    -45.00000000	    -36.06666017	     45.00000000	    -45.00000000	   -261.27521623	  -2974.77307081	    144.60441969	    136.41922237	    372.58763894	     45.23984448	      5.80104359	    -21.68120999
      5.30000000	     39.02132881	      3.47890531	     11.98583866	   -181.25918430	    863.19694460	     -8.32053830	     13.64764573	     36.98552469	     36.21406510	     45.00000000	    -43.71151437	   2075.20476012	  -1732.42869982	     31.78399218	     67.77696522	   -344.57284863	     49.53839348	     18.07755353	      5.19742711	     11.67805910	    -45.00000000	    -36.17156887	     45.00000000	    -45.00000000	   -261.23905865	  -2974.57749726	    144.38502184	    137.04082588	    372.69498065	     45.73158472	      5.69443534	    -21.69270612
      5.31000000	     39.02809417	      3.32620282	     11.80864438	   -180.26496717	    865.08061616	     -8.39731533	     13.91706547	     37.02682044	     36.47952433	     45.00000000	    -43.72308043	   2074.92623068	  -1732.39907565	     32.07260738	     67.61760232	   -344.48057194	     51.19239475	     17.94892056	      5.02307116	     11.70794161	    -45.00000000	    -36.36244293	     45.00000000	    -45.00000000	   -261.26426838	  -2974.39741626	    144.15288656	    137.66301703	    372.72986215	     46.30935768	      5.62028881	    -21.72400933
      5.32000000	     39.04722571	      3.14833060	     11.58701031	   -179.18590949	    867.12374569	     -8.43709485	     13.67482775	     37.19282997	     36.62487916	     45.00000000	    -43.14761908	   2074.75766384	  -1732.22218043	     32.03953737	     67.59897785	   -344.19638076	     52.55319923	     17.95401504	      4.89601224	     11.77837064	    -45.00000000	    -36.53774723	     45.00000000	    -45.00000000	   -261.26951923	  -2974.16136542	    143.91807858	    138.44944474	    372.87852875	     46.73612446	      5.47480381	    -21.71631761
      5.33000000	     39.03716216	      2.99292111	     11.37147721	   -178.01950187	    869.31203692	     -8.43753980	     13.68076999	     37.31310242	     36.81981092	     45.00000000	    -42.73715773	   2074.54717221	  -1732.11975029	     32.10232211	     67.65512899	   -343.98612886	     53.90583240	     17.88109583	      4.73931039	     11.81324493	    -45.00000000	    -36.72289544	     45.00000000	    -45.00000000	   -261.30435042	  -2973.91285058	    143.65771044	    139.24874608	    372.92231304	     47.15698302	      5.38075368	    -21.72768738
      5.34000000	     39.01977303	      2.85211097	     11.14329885	   -176.75984252	    871.60586040	     -8.41394376	     13.77333221	     37.38514043	     37.03509685	     45.00000000	    -42.36327524	   2074.31243689	  -1732.03002198	     32.18405143	     67.70821648	   -343.77032854	     55.33891931	     17.76614577	      4.55830767	     11.84671804	    -45.00000000	    -36.95785764	     45.00000000	    -45.00000000	   -261.36070277	  -2973.64106739	    143.40014212	    140.05062895	    372.96271573	     47.58165897	      5.30056564	    -21.75753715
      5.35000000	     38.99174407	      2.66087805	     10.93698360	   -175.39616908	    873.95886621	     -8.38598824	     13.75311007	     37.43847517	     37.31413405	     45.00000000	    -41.90486245	   2074.10709014	  -1731.95609246	     32.22873822	     67.71497028	   -343.48140956	     56.79637340	     17.69373205	      4.39839506	     11.90247425	    -45.00000000	    -37.20138373	     45.00000000	    -45.00000000	   -261.35203767	  -2973.38184748	    143.16828669	    140.84266098	    373.02557311	     47.97031176	      5.18853813	    -21.75428585
